<svg width="190" height="37" viewBox="0 0 190 37" fill="none" xmlns="http://www.w3.org/2000/svg">
<g clip-path="url(#clip0_3023_1892)">
<path d="M183.24 12.1384C185.261 12.1384 186.136 13.6057 186.136 15.599V27.5547H190V15.1429C190 11.5573 188.037 8.49023 184.203 8.49023C180.369 8.49023 178.281 9.49053 175.509 11.4617L175.502 8.89477H171.639V27.5547H175.502C175.502 27.5547 175.509 28.11 175.509 20.0966C175.509 12.0832 183.236 12.1384 183.236 12.1384H183.24Z" fill="#1A1A19"/>
<path d="M68.8225 7.39112C66.0326 10.175 63.1654 8.45394 63.1654 8.45394C63.1654 8.45394 61.4414 5.58912 64.2314 2.80521C66.5913 0.447891 70.462 1.17237 70.462 1.17237C70.462 1.17237 71.1861 5.03748 68.8262 7.39112H68.8225Z" fill="#B8DD7B"/>
<path d="M13.3434 28.0513C7.3407 28.0513 4.13902 23.3256 3.99934 18.5521C2.81571 18.2873 1.4777 17.9453 0 17.5224L0.981455 14.0876C2.31212 14.4663 3.51412 14.7789 4.57645 15.0217C5.8483 11.4875 9.0757 8.41309 13.0824 8.41309C17.5375 8.41309 22.2978 10.9911 22.2978 18.2322V19.9055L20.6326 20.0158C16.0304 20.321 12.259 20.4534 7.65682 19.42C8.07219 22.0348 9.89174 24.484 13.3397 24.484C17.045 24.484 18.9527 22.0936 18.9638 22.0752L21.8126 24.2303C21.6949 24.3847 18.8572 28.0549 13.3397 28.0549L13.3434 28.0513ZM8.09792 15.8528C11.8179 16.7354 14.9093 16.7611 18.6109 16.5589C18.1404 13.5212 16.2877 11.984 13.0824 11.984C10.9283 11.984 8.99483 13.7897 8.09425 15.8528H8.09792Z" fill="#1A1A19"/>
<path d="M34.2364 28.051C28.4616 28.051 24.8887 22.9539 24.8887 18.2283C24.8887 13.5026 28.7777 8.40918 33.9791 8.40918C39.5517 8.40918 42.7497 11.9874 42.7497 18.2283H39.1804C39.1804 12.6273 36.214 11.9801 33.9791 11.9801C31.0053 11.9801 28.4579 15.4149 28.4579 18.2246C28.4579 21.2292 30.6671 24.4764 34.2364 24.4764C38.0078 24.4764 40.2133 22.064 40.3052 21.961L42.9886 24.3146C42.8563 24.4654 39.6767 28.0437 34.2364 28.0437V28.051Z" fill="#1A1A19"/>
<path d="M55.1457 28.0515C49.7165 28.0515 45.3018 23.6348 45.3018 18.203C45.3018 12.7712 49.7165 8.35449 55.1457 8.35449C60.575 8.35449 64.9897 12.7712 64.9897 18.203C64.9897 23.6348 60.575 28.0515 55.1457 28.0515ZM55.1457 12.0284C51.7455 12.0284 48.9776 14.7976 48.9776 18.1993C48.9776 21.6011 51.7455 24.3703 55.1457 24.3703C58.5459 24.3703 61.3138 21.6011 61.3138 18.1993C61.3138 14.7976 58.5459 12.0284 55.1457 12.0284Z" fill="#1A1A19"/>
<path d="M77.4611 28.0515C72.0319 28.0515 67.6172 23.6348 67.6172 18.203C67.6172 12.7712 72.0319 8.35449 77.4611 8.35449C82.8904 8.35449 87.3051 12.7712 87.3051 18.203C87.3051 23.6348 82.8904 28.0515 77.4611 28.0515ZM77.4611 12.0284C74.061 12.0284 71.293 14.7976 71.293 18.1993C71.293 21.6011 74.061 24.3703 77.4611 24.3703C80.8613 24.3703 83.6292 21.6011 83.6292 18.1993C83.6292 14.7976 80.8613 12.0284 77.4611 12.0284Z" fill="#1A1A19"/>
<path d="M136.649 28.0515C131.219 28.0515 126.805 23.6348 126.805 18.203C126.805 12.7712 131.219 8.35449 136.649 8.35449C142.078 8.35449 146.493 12.7712 146.493 18.203C146.493 23.6348 142.078 28.0515 136.649 28.0515ZM136.649 12.0284C133.248 12.0284 130.481 14.7976 130.481 18.1993C130.481 21.6011 133.248 24.3703 136.649 24.3703C140.049 24.3703 142.817 21.6011 142.817 18.1993C142.817 14.7976 140.049 12.0284 136.649 12.0284Z" fill="#1A1A19"/>
<path d="M159.222 28.0515C153.069 28.0405 149.856 23.0795 149.863 18.1846C149.871 13.5362 153.778 8.34348 158.998 8.35451C163.468 8.36186 168.235 10.9582 168.224 18.2177V19.8947L166.548 20.0013C161.931 20.2992 158.149 20.4279 153.535 19.3798C153.951 22.0056 155.767 24.4622 159.229 24.4659C162.927 24.4733 164.806 22.1454 164.883 22.0461L167.724 24.2269C167.607 24.3813 164.754 28.0589 159.222 28.0515ZM153.984 15.8052C157.715 16.6952 160.814 16.7283 164.526 16.5297C164.059 13.481 162.203 11.9365 158.99 11.9328C156.829 11.9328 154.888 13.7348 153.984 15.8052Z" fill="#1A1A19"/>
<path d="M142.816 27.5547H146.492V0H142.908L142.816 26.1278V27.5583V27.5547Z" fill="#1A1A19"/>
<path d="M126.052 8.49805C122.818 8.65618 120.855 9.64544 118.326 11.4438L118.318 8.87684H114.455V27.5368H118.318C118.318 27.5368 118.326 28.0921 118.326 20.0787C118.326 12.0653 126.052 12.1204 126.052 12.1204V8.49805Z" fill="#1A1A19"/>
<path fill-rule="evenodd" clip-rule="evenodd" d="M83.5599 26.0215V8.87305H87.357V25.8928C87.357 32.3947 82.9276 36.0245 76.8073 36.0245C72.5663 36.0245 69.5166 34.3867 67.8115 31.8011L70.7238 29.5938C71.8057 31.5081 73.773 32.6485 76.8073 32.6485C81.0713 32.6485 83.5599 30.3279 83.5599 26.0215Z" fill="#1A1A19"/>
<path d="M98.7265 28.0001C94.2273 28.0001 90.7021 25.3118 90.7021 21.8806C90.7021 18.8062 93.323 15.706 99.175 15.706C101.818 15.706 104.137 16.5519 106.016 17.9089C105.854 11.76 101.976 11.76 100.686 11.76C98.4913 11.76 96.4181 12.547 93.7862 13.8194L92.1725 10.4729C95.2786 8.97241 97.7855 8.04199 100.686 8.04199C106.354 8.04199 109.736 11.8814 109.736 18.3097C109.736 19.3799 109.559 20.3986 109.225 21.3474C110.438 23.2744 111.111 25.389 111.111 27.5478H107.394C107.394 26.6431 107.291 25.7789 106.898 24.9404C104.913 26.8454 102.035 28.0075 98.7229 28.0075L98.7265 28.0001ZM99.175 19.424C96.3299 19.424 94.4148 20.4133 94.4148 21.8843C94.4148 23.017 96.2564 24.2858 98.7229 24.2858C101.189 24.2858 103.454 23.4179 104.825 21.7372C103.406 20.3508 101.465 19.4277 99.1713 19.4277L99.175 19.424Z" fill="#1A1A19"/>
</g>
<defs>
<clipPath id="clip0_3023_1892">
<rect width="190" height="36.0314" fill="white"/>
</clipPath>
</defs>
</svg>
