<svg width="201" height="34" viewBox="0 0 201 34" fill="none" xmlns="http://www.w3.org/2000/svg">
<path d="M175 7.99953L175.318 8.83042H174.996L174.583 9.04207L173.963 9.25371L173.549 9.46536L173.136 9.88865L172.723 10.3119L172.309 10.7352L172.103 11.1585L171.896 11.7935L171.689 12.2168L171.483 12.8517V16.238L171.689 16.873L172.103 17.9312L172.516 18.5661L173.343 19.4127L174.169 19.836L174.996 20.2593H175.298L175.409 21.1059H174.996L174.376 21.3175L173.756 21.5292L173.136 21.7408L172.516 22.1641L172.103 22.3757L171.689 22.799V23.434L172.929 24.0689L175.202 24.4922L176.649 24.7039L177.889 24.9155L179.749 25.3388L180.782 25.7621L181.815 26.397L183.055 27.4552L183.262 28.3018V29.3601L182.848 31.0532L181.608 32.3231L180.162 32.958L178.302 33.3813H176.442L176.029 33.1697L175.906 32.7464L175.822 32.3231L177.062 32.1115L178.715 31.8998L179.335 31.6882L180.369 31.2649L180.989 30.8416L181.402 30.4183L181.608 29.7833V29.3601L181.195 28.7251L180.575 28.3018L180.162 28.0902L179.542 27.8785L179.129 27.6669L177.269 27.2436L176.029 27.032L174.996 26.8203L173.136 26.397L172.103 25.9737L171.483 25.7621L170.656 25.3388L170.036 24.7039L169.83 24.0689V23.0107L170.036 22.3757L170.656 21.7408L171.07 21.3175L171.896 20.8942L172.723 20.6826H173.343V20.4709H172.723L172.103 20.2593L171.483 20.0476L170.243 18.9894L169.83 18.5661L169.21 17.2963L168.796 16.4497L168.59 15.1798V13.275L168.796 12.4284L169.003 11.7935L169.21 11.1585L169.623 10.5236L170.243 9.677L171.276 8.83042L172.103 8.40713L172.929 7.98384L173.963 7.77219H174.881L175 7.99953Z" fill="white"/>
<path d="M169.83 25.9737H170.45L171.483 26.6087L171.689 26.8203V27.2436L171.276 27.6669L171.07 27.8785L170.656 28.3018L170.45 28.9368L170.243 29.5717V29.7833L170.45 30.4183L171.276 31.2649L171.896 31.6882L172.929 32.1115H174.583L174.996 32.3231L175.202 32.7464V33.3813H173.343L172.309 33.1697L171.483 32.958L171.07 32.7464L170.243 32.3231L169.623 31.8998L169.003 31.4765L168.59 30.8416L168.383 30.4183L168.177 29.7833V28.7251L168.383 28.0902L168.796 27.2436L169.416 26.6087L169.623 26.1854L169.83 25.9737Z" fill="white"/>
<path d="M176.285 21.1059L176.029 20.0476H176.5L177.062 19.6244L177.889 18.9894L178.302 18.5661L178.715 18.1428L178.922 17.9312L179.129 17.5079L179.335 16.873L179.542 16.4497L179.749 15.1798V13.4866L179.542 12.2168L179.335 11.7935L179.129 11.1585L178.715 10.5236L178.096 9.88865L177.476 9.25371L176.856 9.04207L176.442 8.83042L176.029 8.61878L175.822 7.56055H183.262V9.04207H181.815L180.369 9.25371L180.162 9.46536V9.677L180.782 9.88865L181.195 10.3119L181.608 10.9469L182.022 11.5818L182.435 12.64L182.642 14.1216V14.9681L182.435 16.238L182.228 16.873L182.022 17.5079L181.608 18.1428L181.195 18.7778L180.369 19.6244L179.749 20.0476L179.335 20.2593L178.922 20.4709L178.096 20.8942L177.062 21.1059H176.285Z" fill="white"/>
<path d="M175 7.99953L175.318 8.83042H174.996L174.583 9.04207L173.963 9.25371L173.549 9.46536L173.136 9.88865L172.723 10.3119L172.309 10.7352L172.103 11.1585L171.896 11.7935L171.689 12.2168L171.483 12.8517V16.238L171.689 16.873L172.103 17.9312L172.516 18.5661L173.343 19.4127L174.169 19.836L174.996 20.2593H175.298L175.409 21.1059H174.996L174.376 21.3175L173.756 21.5292L173.136 21.7408L172.516 22.1641L172.103 22.3757L171.689 22.799V23.434L172.929 24.0689L175.202 24.4922L176.649 24.7039L177.889 24.9155L179.749 25.3388L180.782 25.7621L181.815 26.397L183.055 27.4552L183.262 28.3018V29.3601L182.848 31.0532L181.608 32.3231L180.162 32.958L178.302 33.3813H176.442L176.029 33.1697L175.906 32.7464L175.822 32.3231L177.062 32.1115L178.715 31.8998L179.335 31.6882L180.369 31.2649L180.989 30.8416L181.402 30.4183L181.608 29.7833V29.3601L181.195 28.7251L180.575 28.3018L180.162 28.0902L179.542 27.8785L179.129 27.6669L177.269 27.2436L176.029 27.032L174.996 26.8203L173.136 26.397L172.103 25.9737L171.483 25.7621L170.656 25.3388L170.036 24.7039L169.83 24.0689V23.0107L170.036 22.3757L170.656 21.7408L171.07 21.3175L171.896 20.8942L172.723 20.6826H173.343V20.4709H172.723L172.103 20.2593L171.483 20.0476L170.243 18.9894L169.83 18.5661L169.21 17.2963L168.796 16.4497L168.59 15.1798V13.275L168.796 12.4284L169.003 11.7935L169.21 11.1585L169.623 10.5236L170.243 9.677L171.276 8.83042L172.103 8.40713L172.929 7.98384L173.963 7.77219H174.881L175 7.99953Z" stroke="white" stroke-width="0.1"/>
<path d="M169.83 25.9737H170.45L171.483 26.6087L171.689 26.8203V27.2436L171.276 27.6669L171.07 27.8785L170.656 28.3018L170.45 28.9368L170.243 29.5717V29.7833L170.45 30.4183L171.276 31.2649L171.896 31.6882L172.929 32.1115H174.583L174.996 32.3231L175.202 32.7464V33.3813H173.343L172.309 33.1697L171.483 32.958L171.07 32.7464L170.243 32.3231L169.623 31.8998L169.003 31.4765L168.59 30.8416L168.383 30.4183L168.177 29.7833V28.7251L168.383 28.0902L168.796 27.2436L169.416 26.6087L169.623 26.1854L169.83 25.9737Z" stroke="white" stroke-width="0.1"/>
<path d="M176.285 21.1059L176.029 20.0476H176.5L177.062 19.6244L177.889 18.9894L178.302 18.5661L178.715 18.1428L178.922 17.9312L179.129 17.5079L179.335 16.873L179.542 16.4497L179.749 15.1798V13.4866L179.542 12.2168L179.335 11.7935L179.129 11.1585L178.715 10.5236L178.096 9.88865L177.476 9.25371L176.856 9.04207L176.442 8.83042L176.029 8.61878L175.822 7.56055H183.262V9.04207H181.815L180.369 9.25371L180.162 9.46536V9.677L180.782 9.88865L181.195 10.3119L181.608 10.9469L182.022 11.5818L182.435 12.64L182.642 14.1216V14.9681L182.435 16.238L182.228 16.873L182.022 17.5079L181.608 18.1428L181.195 18.7778L180.369 19.6244L179.749 20.0476L179.335 20.2593L178.922 20.4709L178.096 20.8942L177.062 21.1059H176.285Z" stroke="white" stroke-width="0.1"/>
<path d="M152.36 7.77344H150.5V8.83167H151.12L152.153 9.04331L152.566 9.25496L153.393 9.88989L154.013 10.5248L154.426 11.1598L154.633 11.7947L156.286 10.5248L156.079 9.88989L155.666 9.4666L155.253 9.04331L154.426 8.62002L153.6 8.19673L152.98 7.98508L152.36 7.77344Z" fill="white" stroke="white" stroke-width="0.1"/>
<path d="M145 22.3761V21.9528L146.24 20.8945H146.653L146.86 21.5295L148.1 22.7993L148.72 23.2226L149.133 23.4343L149.753 23.6459H151.199V24.9158H150.373L148.72 24.7042L147.893 24.4925L147.273 24.2809L146.653 23.8576L146.24 23.6459L145.827 23.4343L145.207 22.7993L145 22.3761Z" fill="white" stroke="white" stroke-width="0.1"/>
<path d="M152.678 24.7051H151.852V23.6469L152.058 23.4352L152.678 23.2236L153.505 22.8003L153.918 22.5886L154.125 22.377L154.331 21.9537L154.538 21.5304L154.745 21.1071V20.6838L154.538 20.2605L154.331 19.8372L153.711 19.2023L153.091 18.779L152.265 18.3557L149.992 17.2975L149.372 17.0858L148.959 16.8742L148.545 16.6626L148.132 16.4509L147.512 16.2393L147.305 16.0276L146.892 15.6043L146.479 15.3927L146.065 14.9694L145.652 14.7577L145.446 14.5461L145.239 14.1228L145.032 13.9112L144.826 13.4879L144.619 12.4296V12.0064L144.826 10.9481L145.032 10.3132L145.446 9.67825L145.859 9.25496L146.479 8.83167L147.512 8.19673L148.339 7.98508L149.372 7.77344H149.785V8.83167H149.578L148.752 9.04331L148.339 9.25496L147.925 9.4666L147.512 9.88989L147.305 10.3132L147.099 10.9481V11.7947L147.512 12.6413L148.132 13.2762L148.752 13.9112L149.578 14.3345L150.405 14.7577L151.438 15.181L152.472 15.3927L152.885 15.6043L153.711 16.0276L154.538 16.4509L155.158 16.8742L155.778 17.5091L156.398 18.1441L156.811 18.779L157.018 19.8372V20.4722L156.811 21.5304L156.398 22.377L155.571 23.4352L154.951 23.8585L154.125 24.2818L153.505 24.4934L152.678 24.7051Z" fill="white" stroke="white" stroke-width="0.1"/>
<path d="M134.579 7.77344H133.546V9.04331H134.166L134.786 9.25496L135.199 9.4666L135.613 9.88989L136.233 10.5248L136.439 10.9481L136.853 11.7947L137.059 12.218L137.266 13.0646L137.472 14.1228V14.5461H129V16.0276H140.159V15.3927L139.952 13.4879L139.746 12.4296L139.539 12.0064L139.332 11.3714L138.919 10.5248L138.712 10.3132L138.092 9.67825L137.266 8.83167L136.439 8.40837L135.406 7.98508L134.579 7.77344Z" fill="white" stroke="white" stroke-width="0.1"/>
<path d="M131.993 7.77344H132.819V8.83167H132.613L131.993 9.04331L131.579 9.25496L130.96 9.67825L130.34 10.3132L129.926 10.9481L129.306 12.0064L128.893 13.2762L128.686 14.1228L128.48 15.816V16.6626L128.686 18.3557L128.893 19.2023L129.306 20.4722L129.72 21.3188L130.753 22.5886L131.579 23.2236L132.406 23.6469H134.266L135.092 23.4352L136.126 22.8003L136.952 22.1653L137.366 21.7421L138.192 22.377L137.779 23.0119L137.159 23.6469L136.539 24.0702L135.712 24.4935L135.092 24.7051L134.266 24.9167H132.406L131.166 24.7051L130.753 24.4935L129.926 24.0702L129.1 23.6469L128.273 22.8003L127.447 21.7421L126.827 20.6838L126.207 18.9907L126 17.9324V14.5461L126.207 13.4879L126.62 12.218L127.653 10.3132L129.1 8.83167L130.34 8.19673L131.993 7.77344Z" fill="white" stroke="white" stroke-width="0.1"/>
<path d="M73.7394 8.83167V7.77344H74.566L75.7594 7.98508H75.8058L76.6324 8.40837L77.0457 8.62002L77.459 8.83167L77.8723 9.04331L78.0789 9.25496L78.4922 9.67825L79.1122 10.3132L80.1454 11.7947L80.7653 13.6995L80.972 14.7577V17.7208L80.7653 18.9907L80.5587 19.6256L80.352 20.2605L79.7321 21.3188L79.1122 22.1653L78.9055 22.377L78.6989 22.5886L78.4922 22.8003L78.2856 23.0119L78.0789 23.2236L77.8723 23.4352L77.2524 23.8585L76.8391 24.0702L76.4258 24.2818L76.0125 24.4934L74.9793 24.7051H73.7394V23.6469H74.1527L74.7726 23.4352L75.1859 23.2236L75.5992 23.0119L75.8058 22.8003L76.0125 22.5886L76.2191 22.377L76.4258 22.1653L76.6324 21.9537L76.8391 21.7421L77.2524 21.1071L77.459 20.6838L77.6657 20.2605L77.8723 19.8372L78.0789 18.9907L78.2856 18.1441V14.3345L78.0789 13.4879L77.8723 12.8529L77.6657 12.4296L77.459 12.0064L77.2524 11.5831L77.0457 11.1598L76.4258 10.3132L76.2191 10.1015L76.0125 9.88989L75.1859 9.25496L74.566 9.04331H73.946L73.7394 8.83167Z" fill="white" stroke="white" stroke-width="0.1"/>
<path d="M72.4107 8.83167V7.77344H71.3774L69.7243 8.19673L69.311 8.40837L68.8977 8.62002L68.4844 8.83167L67.2445 9.88989L67.0379 10.1015L66.2113 11.3714L66.0046 11.7947L65.798 12.218L65.5914 12.8529L65.3847 13.4879L65.1781 14.3345C64.944 15.905 64.9373 16.7852 65.1781 18.3557L66.0046 20.4722L67.0379 22.1653L68.4844 23.4352L68.8977 23.6469L69.311 23.8585L69.7243 24.0702L70.1376 24.2818L71.1708 24.4935L72.204 24.7051H72.4107V23.6469H71.9974L71.1708 23.4352L70.1376 22.5886L69.001 21.5304L68.2778 20.0489L68.0711 19.414L67.8645 18.5674L67.6578 17.2975V15.181L67.8645 13.9112L68.0711 13.2762L68.2778 12.6413L68.4844 12.218L68.691 11.7947L68.8977 11.3714L69.1043 10.9481C69.5373 10.2511 69.8467 9.92012 70.5509 9.4666L70.9641 9.25496L71.5841 9.04331H72.204L72.4107 8.83167Z" fill="white" stroke="white" stroke-width="0.1"/>
<path d="M58.6542 24.4927L58.0343 24.7043L56.5877 24.916H54.9346L53.4881 24.7043L52.4548 24.4927L52.0415 24.281L51.6282 24.0694L51.2149 23.8577L50.8017 23.6461L50.3884 23.4344L50.1817 23.2228L49.9751 23.0112L49.3551 22.5879L49.1485 22.3762L48.9418 22.1646L48.7352 21.9529L48.5285 21.7413L48.3219 21.5296L48.1153 21.1063L47.9086 20.6831L47.702 20.4714L47.4953 20.0481L47.2887 19.6248L47.082 19.2015L46.8754 18.7782L46.6687 18.1433L46.4621 17.2967L46.2554 16.6618L46.0488 15.3919V10.5241L46.2554 9.25418L46.4621 8.61925L46.6687 7.77266L46.8754 7.13773L47.082 6.71443L47.2887 6.29114L47.4953 5.86785L47.702 5.65621L47.9086 5.23291L48.1153 4.80962L48.3219 4.38633L48.7352 4.17469L48.9418 3.96304L49.1485 3.75139L49.3551 3.53975L49.5618 3.3281L49.7684 3.11646L49.9751 2.90481L50.1817 2.69317L50.3884 2.48152L50.8017 2.26987L51.2149 2.05823L51.6282 1.84658L52.0415 1.63494L52.4548 1.42329L53.6947 1.21165L55.1412 1H55.9678L57.621 1.21165L58.4476 1.42329L59.0675 1.63494L59.4808 1.84658L59.8941 2.05823L60.3074 2.26987L60.7207 2.48152L60.9273 2.69317L61.1339 2.90481L61.3406 3.11646L61.5472 3.3281L61.9605 3.53975V3.75139L61.1339 5.02127L60.7207 5.65621L60.514 5.86785H60.3074L60.1007 5.23291L59.8941 4.80962L59.6874 4.38633L59.4808 4.17469L59.2741 3.96304L59.0675 3.75139L58.8608 3.53975L58.6542 3.3281L58.4476 3.11646L58.0343 2.90481L57.621 2.69317L57.001 2.48152H54.3146L53.2814 2.69317L52.8681 2.90481L52.6615 3.11646L52.2482 3.3281L51.8349 3.53975L51.6282 3.75139L51.4216 3.96304L51.2149 4.17469L51.0083 4.38633L50.8017 4.80962L50.595 5.02127L50.3884 5.23291L50.1817 5.44456L49.9751 5.86785L49.7684 6.50279L49.5618 6.92608L49.3551 7.34937L49.1485 7.98431L48.9418 8.83089L48.7352 9.88912L48.5285 11.7939V14.122L48.7352 16.0268L48.9418 17.0851L49.1485 17.9317L49.3551 18.5666L49.5618 18.9899L49.7684 19.6248L49.9751 20.0481L50.1817 20.4714L50.3884 20.6831L50.595 20.8947L50.8017 21.318L51.0083 21.5296L51.2149 21.7413L51.4216 21.9529L51.6282 22.1646L51.8349 22.3762L52.2482 22.5879L52.4548 22.7995L52.8681 23.0112L53.2814 23.2228L54.108 23.4344L55.3479 23.6461H55.5545L57.4143 23.4344L58.2409 23.2228L58.8608 23.0112L59.2741 22.7995L59.5841 22.5879H59.8941L60.1007 22.7995L60.3074 23.4344V23.6461L60.1007 23.8577L59.6874 24.0694L59.2741 24.281L58.6542 24.4927Z" fill="white" stroke="white" stroke-width="0.1"/>
<path d="M36.7498 4.59836L36.9564 4.38672H37.9896V7.5614H42.1226V9.04292H37.9896V20.2601L38.1963 22.165L38.4029 22.7999L38.6096 23.0115L38.8162 23.2232L39.0229 23.4348L39.4362 23.6465H41.0893L41.7093 23.4348H41.6973L42.1226 23.2232V24.2814L41.9159 24.4931L41.5026 24.7047L41.5 24.6913L40.4694 24.9164H39.6428L38.1963 24.7047L36.9564 24.0698L36.5431 23.6465L36.1298 23.0115L35.9232 22.5882L35.7165 21.9533L35.5099 20.8951V9.04292H34.27V7.5614H35.3032V7.34976L35.4738 7.13811H35.5099H35.9232L36.1298 6.92647L36.3365 6.50318L36.5431 5.69128L36.7498 4.59836Z" fill="white" stroke="white" stroke-width="0.1"/>
<path d="M24.351 24.9155H21.6646V7.56055H24.351V24.9155Z" fill="white"/>
<path d="M24.7643 13.275H24.5576V11.7935L24.7643 11.3702L25.1776 10.7352L25.5909 10.1003L25.7975 9.88865L26.0041 9.677L26.2108 9.46536L26.4174 9.25371L27.4507 8.40713L27.864 8.19548L28.4839 7.98384L29.1038 7.77219H30.1371V8.83042L30.3437 9.04207V10.3119H28.4839L27.6573 10.5236L27.244 10.7352L26.8307 10.9469L26.0041 11.5818L25.7975 11.7935L25.5909 12.0051L25.3842 12.2168L24.9709 12.8517L24.7643 13.275Z" fill="white"/>
<path d="M24.351 24.9155H21.6646V7.56055H24.351V24.9155Z" stroke="white" stroke-width="0.1"/>
<path d="M24.7643 13.275H24.5576V11.7935L24.7643 11.3702L25.1776 10.7352L25.5909 10.1003L25.7975 9.88865L26.0041 9.677L26.2108 9.46536L26.4174 9.25371L27.4507 8.40713L27.864 8.19548L28.4839 7.98384L29.1038 7.77219H30.1371V8.83042L30.3437 9.04207V10.3119H28.4839L27.6573 10.5236L27.244 10.7352L26.8307 10.9469L26.0041 11.5818L25.7975 11.7935L25.5909 12.0051L25.3842 12.2168L24.9709 12.8517L24.7643 13.275Z" stroke="white" stroke-width="0.1"/>
<path d="M87.5846 24.9155H84.8982V7.56055H87.5846V24.9155Z" fill="white"/>
<path d="M87.9979 13.275H87.7912V11.7935L88.2045 11.1585L88.6178 10.5236L89.0311 9.88865L89.2378 9.677L89.4444 9.46536L89.651 9.25371L90.6843 8.40713L91.0976 8.19548L91.7175 7.98384L92.3374 7.77219H93.3707V8.83042L93.5773 9.04207V10.3119H91.7175L90.8909 10.5236L90.4776 10.7352L90.0643 10.9469L89.2378 11.5818L89.0311 11.7935L88.8245 12.0051L88.6178 12.2168L87.9979 13.275Z" fill="white"/>
<path d="M87.5846 24.9155H84.8982V7.56055H87.5846V24.9155Z" stroke="white" stroke-width="0.1"/>
<path d="M87.9979 13.275H87.7912V11.7935L88.2045 11.1585L88.6178 10.5236L89.0311 9.88865L89.2378 9.677L89.4444 9.46536L89.651 9.25371L90.6843 8.40713L91.0976 8.19548L91.7175 7.98384L92.3374 7.77219H93.3707V8.83042L93.5773 9.04207V10.3119H91.7175L90.8909 10.5236L90.4776 10.7352L90.0643 10.9469L89.2378 11.5818L89.0311 11.7935L88.8245 12.0051L88.6178 12.2168L87.9979 13.275Z" stroke="white" stroke-width="0.1"/>
<path d="M2.23988 24.916H1L8.23261 1.21165L8.33593 1H10.5057L10.7124 1.21165L17.7383 24.916H15.2586L8.74922 2.90481L5.13292 15.3919H11.7456L11.9522 15.6036V16.6618H4.71963L2.23988 24.916Z" fill="white" stroke="white" stroke-width="0.1"/>
<path d="M109.696 24.916H107.009V1H110.522L113.415 1.21165L114.655 1.42329L115.688 1.63494L116.928 2.05823L117.962 2.48152L119.201 3.3281L120.441 4.38633L121.475 5.86785L122.508 9.04254L122.714 11.5823V14.757L122.301 17.2967L121.888 18.7782L121.268 20.0481L120.648 21.1063L119.615 22.1646L118.582 23.0112L117.135 23.8577L114.655 24.7043L112.589 24.916H111.556V23.6461L111.762 23.4344H112.692L114.242 23.2228L115.482 22.7995L116.308 22.3762L117.755 21.1063L118.375 20.4714L118.995 19.4132L119.408 18.3549L119.615 17.72L119.821 16.8734L120.028 14.757V10.7357L119.821 8.83089L119.408 7.13773L118.582 5.65621L117.962 4.80962L117.135 4.17469L116.515 3.75139L115.688 3.3281L115.069 3.11646L114.449 2.90481L113.622 2.69317L112.176 2.48152H109.696V24.916Z" fill="white" stroke="white" stroke-width="0.1"/>
<path d="M163.837 7.5605H161.357V24.9154H163.837V7.5605Z" fill="white"/>
<path d="M160.944 5.44405V3.75088L161.564 3.11594L161.977 2.9043H163.217L163.63 3.11594L164.25 3.75088V5.44405L163.424 6.29063H161.77L160.944 5.44405Z" fill="white"/>
<path d="M163.837 7.5605H161.357V24.9154H163.837V7.5605Z" stroke="white" stroke-width="0.1"/>
<path d="M160.944 5.44405V3.75088L161.564 3.11594L161.977 2.9043H163.217L163.63 3.11594L164.25 3.75088V5.44405L163.424 6.29063H161.77L160.944 5.44405Z" stroke="white" stroke-width="0.1"/>
<path d="M189.668 7.56055H187.188V24.9155H189.668V7.56055Z" fill="white"/>
<path d="M190.494 10.1003V8.83042L190.908 8.61878L191.114 8.40713L191.528 8.19548L192.354 7.77219L193.594 7.56055H195.247L196.28 7.77219L197.314 8.19548L197.934 8.61878L198.347 9.04207L198.76 9.46536L199.173 10.1003L199.38 10.5236L199.587 11.1585L199.793 11.7935L200 12.8517V24.9155H197.52V14.7565L197.314 12.2168L197.107 11.7935L196.9 11.1585L196.694 10.5236L196.487 10.3119L196.074 9.88865L195.66 9.46536L195.247 9.25371L194.214 9.04207H192.767L191.941 9.25371L191.114 9.677L190.701 9.88865L190.494 10.1003Z" fill="white"/>
<path d="M189.668 7.56055H187.188V24.9155H189.668V7.56055Z" stroke="white" stroke-width="0.1"/>
<path d="M190.494 10.1003V8.83042L190.908 8.61878L191.114 8.40713L191.528 8.19548L192.354 7.77219L193.594 7.56055H195.247L196.28 7.77219L197.314 8.19548L197.934 8.61878L198.347 9.04207L198.76 9.46536L199.173 10.1003L199.38 10.5236L199.587 11.1585L199.793 11.7935L200 12.8517V24.9155H197.52V14.7565L197.314 12.2168L197.107 11.7935L196.9 11.1585L196.694 10.5236L196.487 10.3119L196.074 9.88865L195.66 9.46536L195.247 9.25371L194.214 9.04207H192.767L191.941 9.25371L191.114 9.677L190.701 9.88865L190.494 10.1003Z" stroke="white" stroke-width="0.1"/>
</svg>
